<svg width="528" height="308" viewBox="0 0 528 308" fill="none" xmlns="http://www.w3.org/2000/svg">
<rect x="2" y="2" width="524" height="304" rx="8" stroke="white" stroke-width="4"/>
<path d="M390.308 193.184C390.752 192.54 390.988 191.835 391 191.12C391.011 190.405 390.798 189.696 390.376 189.045C389.954 188.394 389.332 187.815 388.555 187.349C387.778 186.884 386.864 186.543 385.878 186.351L384.329 169L374 174.433L377.054 190.078C376.703 191.256 376.982 192.484 377.84 193.529C378.697 194.573 380.073 195.362 381.707 195.745C383.341 196.128 385.118 196.078 386.704 195.607C388.289 195.135 389.572 194.273 390.308 193.184V193.184Z" fill="#FFB8B8"/>
<path d="M435 267.201L443.134 269L456 245.655L443.996 243L435 267.201Z" fill="#FFB8B8"/>
<path d="M457.164 277.912L431.297 272.39L434.162 264.949L450.035 268.337C452.686 268.903 454.926 270.23 456.263 272.025C457.6 273.821 457.924 275.938 457.164 277.912V277.912V277.912Z" fill="#262D3D"/>
<path d="M421.999 288L413.191 287.999L409 263L422 263.001L421.999 288Z" fill="#FFB8B8"/>
<path d="M407.432 287H424V294H397C397 293.081 397.27 292.17 397.794 291.321C398.318 290.472 399.087 289.7 400.055 289.05C401.024 288.4 402.174 287.885 403.44 287.533C404.705 287.181 406.062 287 407.432 287Z" fill="#262D3D"/>
<path d="M398.418 187.619C398.418 187.619 393.527 202.286 401.912 232.143L408.2 283.476L424.27 284L422.174 228.476L427.764 205.429L441.738 237.381L436.847 259.905L448.725 264.095L462 233.19C462 233.19 460.603 190.238 455.013 185L398.418 187.619Z" fill="#262D3D"/>
<path d="M418 104C427.389 104 435 98.6274 435 92C435 85.3726 427.389 80 418 80C408.611 80 401 85.3726 401 92C401 98.6274 408.611 104 418 104Z" fill="#FFB8B8"/>
<path d="M409.682 111.467C409.682 111.467 408.625 113.164 421.307 112.116C433.989 111.067 436.807 108 436.807 108L459 179.089L457.591 185.379L397 188V179.089L407.568 131.911L409.682 111.467Z" fill="white"/>
<path d="M414.237 186L395.463 185.737L395.403 185.542C392.979 175.841 393.213 165.876 396.091 156.244C399.882 143.761 391.267 126.831 387.387 120.131C386.93 119.334 386.876 118.441 387.234 117.617C387.592 116.793 388.339 116.093 389.336 115.645L402.625 109.717C403.53 109.314 404.548 109.073 405.6 109.014C406.651 108.955 407.707 109.08 408.682 109.379C409.657 109.677 410.525 110.141 411.216 110.733C411.908 111.325 412.403 112.029 412.664 112.789L414.987 119.566C425.688 128.121 424.938 145.669 422.419 158.897C420.618 168.007 417.909 177.006 414.315 185.818L414.237 186Z" fill="#262D3D"/>
<path d="M393.5 115L391.816 115.838C388.01 117.72 385.153 120.453 383.676 123.623C382.818 125.471 382.163 127.365 381.714 129.288C380.286 135.523 373.857 162.021 373.857 162.021L371 188L386.714 185.402L393.857 155.267L401 136.562L393.5 115Z" fill="#262D3D"/>
<path d="M447.379 188L447.234 187.693C446.236 185.576 422.944 135.719 433.945 118.138L432.867 109.892C432.752 109.009 432.925 108.118 433.371 107.298C433.817 106.479 434.522 105.757 435.423 105.198C436.324 104.638 437.392 104.259 438.532 104.094C439.672 103.928 440.848 103.982 441.954 104.251L458.787 108.334C459.482 108.5 460.088 108.833 460.515 109.284C460.942 109.735 461.167 110.279 461.156 110.836C461.086 115.576 460.744 127.655 459.076 137.443C457.013 149.544 463.889 179.777 463.959 180.081L464 180.26L447.379 188Z" fill="#262D3D"/>
<path d="M441.002 174.496C441.022 173.716 441.26 172.948 441.699 172.248C442.139 171.547 442.77 170.931 443.548 170.442C444.326 169.952 445.231 169.602 446.201 169.416C447.17 169.23 448.18 169.212 449.159 169.364L461.425 153L467 161.84L454.497 176.025C454.062 177.293 453.046 178.393 451.642 179.115C450.238 179.838 448.544 180.133 446.881 179.944C445.217 179.756 443.7 179.097 442.617 178.093C441.533 177.089 440.959 175.809 441.002 174.496V174.496Z" fill="#FFB8B8"/>
<path d="M456.311 110L457.231 110.152C458.368 110.341 459.423 110.729 460.299 111.282C461.175 111.836 461.845 112.537 462.25 113.322L478 143.923L459.511 173L452.756 161.012L461.289 147.749L446 133.721L456.311 110Z" fill="#262D3D"/>
<path d="M435.589 92.8317C436.571 91.0158 437.307 89.1362 437.785 87.2191C438.26 85.2911 437.943 83.3059 436.873 81.5043C435.723 79.9286 434.115 78.5479 432.156 77.4554C430.813 76.6379 429.403 75.8784 427.934 75.181C423.795 73.2157 422.894 75.004 417.929 74.6017C412.963 74.1995 407.4 73.1772 403.42 75.2988C400.846 76.6984 398.914 78.6158 397.87 80.8058C396.826 82.9958 396.719 85.3589 397.562 87.5928C398.671 90.2955 397.788 91.1863 401.214 92.6471C401.212 90.2147 402.504 87.8732 404.828 86.0988C407.202 84.3183 410.413 83.2308 413.842 83.0467C416.482 82.9097 419.112 83.313 421.697 83.7139C424.205 84.1028 426.781 84.5116 428.907 85.5229C432.431 87.199 434.083 90.1922 435.536 93" fill="#262D3D"/>
<path d="M350 109H45V110H350V109Z" fill="white"/>
<path d="M290 28H288V191H290V28Z" fill="white"/>
<path d="M228 28H226V191H228V28Z" fill="white"/>
<path d="M107 28H105V191H107V28Z" fill="white"/>
<path d="M228 68H105V109H228V68Z" fill="#EAC91D"/>
<path d="M105 106V149L169 107.536L105 106Z" fill="#EAC91D"/>
<path d="M228 107.536V109.071L227.197 109.588L225.576 110.633C194.062 111.324 168.607 127.725 167.458 148.063L166.014 148.995L166 149V106L228 107.536Z" fill="#EAC91D"/>
<path d="M227 110C226.854 110 226.7 110 226.554 110.005C193.384 110.161 166.425 127.981 166.014 149.976C166 150.152 166 150.323 166 150.5C166 172.832 193.363 191 227 191C260.637 191 288 172.832 288 150.5C288 128.168 260.637 110 227 110ZM227 189.962C194.137 189.962 167.394 172.261 167.394 150.5C167.394 150.007 167.408 149.519 167.443 149.031C168.58 128.402 193.767 111.765 224.95 111.064C225.627 111.044 226.31 111.038 227 111.038C259.863 111.038 286.606 128.739 286.606 150.5C286.606 172.261 259.863 189.962 227 189.962Z" fill="white"/>
<path d="M194.349 149L191 148.987C191.001 148.771 191.538 127.477 225.8 126L226 128.414C194.926 129.753 194.358 148.215 194.349 149Z" fill="#262D3D"/>
<path d="M263.986 148.978C263.848 146.006 262.895 143.084 261.183 140.386C259.471 137.689 257.035 135.271 254.02 133.276C246.931 128.547 237.664 125.949 228.071 126.001H228C208.418 126.001 192.435 136.259 192.014 148.978C192 149.15 192 149.328 192 149.5C192 156.154 196.256 162.167 203.085 166.444C210.058 170.73 218.893 173.054 228 172.999H228.071C247.889 172.973 264 162.444 264 149.5C264 149.328 264 149.15 263.986 148.978Z" fill="#262D3D"/>
<path d="M253 133.196L251.948 133.882L203.954 165.314L202.903 166C196.186 161.771 192 155.824 192 149.242C192 149.072 192 148.897 192.014 148.726C192.428 136.146 208.148 126.001 227.408 126.001H227.478C236.914 125.95 246.028 128.519 253 133.196V133.196Z" fill="#EAC91D"/>
<path d="M167 28H166V191H167V28Z" fill="white"/>
</svg>
