<svg width="516" height="308" viewBox="0 0 516 308" fill="none" xmlns="http://www.w3.org/2000/svg">
<path d="M122 257C135.807 257 147 246.479 147 233.5C147 220.521 135.807 210 122 210C108.193 210 97 220.521 97 233.5C97 246.479 108.193 257 122 257Z" fill="#F2F2F2"/>
<path d="M126 253C139.807 253 151 242.703 151 230C151 217.297 139.807 207 126 207C112.193 207 101 217.297 101 230C101 242.703 112.193 253 126 253Z" fill="#EAC91D"/>
<path d="M306.565 38.0811H196.647V36H146.806V38.0811H36.4351C35.4587 38.0811 34.4919 38.2577 33.5898 38.601C32.6877 38.9442 31.8681 39.4473 31.1777 40.0815C30.4873 40.7157 29.9396 41.4686 29.566 42.2973C29.1923 43.1259 29 44.014 29 44.9109V183.17C29 184.982 29.7833 186.719 31.1777 188C32.572 189.28 34.4632 190 36.4351 190H306.565C308.537 190 310.428 189.28 311.822 188C313.217 186.719 314 184.982 314 183.17V44.9109C314 44.014 313.808 43.1259 313.434 42.2973C313.06 41.4686 312.513 40.7157 311.822 40.0815C311.132 39.4473 310.312 38.9442 309.41 38.601C308.508 38.2577 307.541 38.0811 306.565 38.0811V38.0811Z" fill="#262D3D"/>
<path d="M304 50H39V188H304V50Z" fill="#EAC91D"/>
<path d="M171 46C172.657 46 174 44.8807 174 43.5C174 42.1193 172.657 41 171 41C169.343 41 168 42.1193 168 43.5C168 44.8807 169.343 46 171 46Z" fill="#EAC91D"/>
<path opacity="0.1" d="M228 188H39V50L228 188Z" fill="black"/>
<path d="M80.5 177C94.5833 177 106 166.479 106 153.5C106 140.521 94.5833 130 80.5 130C66.4167 130 55 140.521 55 153.5C55 166.479 66.4167 177 80.5 177Z" fill="#F2F2F2"/>
<path d="M258 124H233V129H258V124Z" fill="#262D3D"/>
<path d="M287 87H203V89H287V87Z" fill="#262D3D"/>
<path d="M287 94H203V96H287V94Z" fill="#262D3D"/>
<path d="M287 100H203V102H287V100Z" fill="#262D3D"/>
<path d="M287 107H203V109H287V107Z" fill="#262D3D"/>
<path d="M287 113H203V115H287V113Z" fill="#262D3D"/>
<path d="M287 53H277V62H287V53Z" fill="#F2F2F2"/>
<path d="M292 67H280V55H292V67ZM280.522 66.4783H291.478V55.5218H280.522V66.4783Z" fill="#262D3D"/>
<path d="M321.149 185.049H295.333V183.339C295.333 183.294 295.324 183.25 295.305 183.209C295.287 183.168 295.26 183.131 295.225 183.099C295.191 183.068 295.15 183.043 295.106 183.026C295.061 183.009 295.013 183 294.965 183H286.113C286.065 183 286.017 183.009 285.972 183.026C285.928 183.043 285.887 183.068 285.853 183.099C285.818 183.131 285.791 183.168 285.773 183.209C285.754 183.25 285.745 183.294 285.745 183.339V185.049H280.213V183.339C280.213 183.294 280.203 183.25 280.185 183.209C280.166 183.168 280.139 183.131 280.105 183.099C280.07 183.068 280.03 183.043 279.985 183.026C279.94 183.009 279.892 183 279.844 183H270.993C270.944 183 270.897 183.009 270.852 183.026C270.807 183.043 270.766 183.068 270.732 183.099C270.698 183.131 270.671 183.168 270.652 183.209C270.634 183.25 270.624 183.294 270.624 183.339V185.049H265.092V183.339C265.092 183.294 265.083 183.25 265.064 183.209C265.046 183.168 265.018 183.131 264.984 183.099C264.95 183.068 264.909 183.043 264.865 183.026C264.82 183.009 264.772 183 264.723 183H255.872C255.824 183 255.776 183.009 255.731 183.026C255.686 183.043 255.646 183.068 255.612 183.099C255.577 183.131 255.55 183.168 255.532 183.209C255.513 183.25 255.504 183.294 255.504 183.339V185.049H249.972V183.339C249.972 183.294 249.962 183.25 249.944 183.209C249.925 183.168 249.898 183.131 249.864 183.099C249.829 183.068 249.789 183.043 249.744 183.026C249.699 183.009 249.651 183 249.603 183H240.752C240.703 183 240.655 183.009 240.611 183.026C240.566 183.043 240.525 183.068 240.491 183.099C240.457 183.131 240.43 183.168 240.411 183.209C240.393 183.25 240.383 183.294 240.383 183.339V185.049H234.851V183.339C234.851 183.294 234.842 183.25 234.823 183.209C234.804 183.168 234.777 183.131 234.743 183.099C234.709 183.068 234.668 183.043 234.623 183.026C234.579 183.009 234.531 183 234.482 183H225.631C225.583 183 225.535 183.009 225.49 183.026C225.445 183.043 225.405 183.068 225.37 183.099C225.336 183.131 225.309 183.168 225.29 183.209C225.272 183.25 225.262 183.294 225.262 183.339V185.049H219.731V183.339C219.731 183.294 219.721 183.25 219.702 183.209C219.684 183.168 219.657 183.131 219.622 183.099C219.588 183.068 219.548 183.043 219.503 183.026C219.458 183.009 219.41 183 219.362 183H210.511C210.462 183 210.414 183.009 210.37 183.026C210.325 183.043 210.284 183.068 210.25 183.099C210.216 183.131 210.188 183.168 210.17 183.209C210.151 183.25 210.142 183.294 210.142 183.339V185.049H204.61V183.339C204.61 183.294 204.6 183.25 204.582 183.209C204.563 183.168 204.536 183.131 204.502 183.099C204.468 183.068 204.427 183.043 204.382 183.026C204.338 183.009 204.29 183 204.241 183H134.908C134.859 183 134.811 183.009 134.767 183.026C134.722 183.043 134.681 183.068 134.647 183.099C134.613 183.131 134.586 183.168 134.567 183.209C134.549 183.25 134.539 183.294 134.539 183.339V185.049H129.007V183.339C129.007 183.294 128.998 183.25 128.979 183.209C128.96 183.168 128.933 183.131 128.899 183.099C128.865 183.068 128.824 183.043 128.779 183.026C128.735 183.009 128.687 183 128.638 183H119.787C119.739 183 119.691 183.009 119.646 183.026C119.601 183.043 119.561 183.068 119.526 183.099C119.492 183.131 119.465 183.168 119.447 183.209C119.428 183.25 119.418 183.294 119.418 183.339V185.049H113.887V183.339C113.887 183.294 113.877 183.25 113.858 183.209C113.84 183.168 113.813 183.131 113.779 183.099C113.744 183.068 113.704 183.043 113.659 183.026C113.614 183.009 113.566 183 113.518 183H104.667C104.618 183 104.57 183.009 104.526 183.026C104.481 183.043 104.44 183.068 104.406 183.099C104.372 183.131 104.344 183.168 104.326 183.209C104.307 183.25 104.298 183.294 104.298 183.339V185.049H98.766V183.339C98.766 183.294 98.7564 183.25 98.7379 183.209C98.7194 183.168 98.6922 183.131 98.6579 183.099C98.6237 183.068 98.583 183.043 98.5383 183.026C98.4935 183.009 98.4456 183 98.3972 183H89.5461C89.4977 183 89.4497 183.009 89.405 183.026C89.3602 183.043 89.3196 183.068 89.2853 183.099C89.2511 183.131 89.2239 183.168 89.2054 183.209C89.1868 183.25 89.1773 183.294 89.1773 183.339V185.049H83.6454V183.339C83.6454 183.294 83.6359 183.25 83.6173 183.209C83.5988 183.168 83.5716 183.131 83.5374 183.099C83.5031 183.068 83.4625 183.043 83.4177 183.026C83.373 183.009 83.325 183 83.2766 183H74.4255C74.3771 183 74.3291 183.009 74.2844 183.026C74.2397 183.043 74.199 183.068 74.1647 183.099C74.1305 183.131 74.1033 183.168 74.0848 183.209C74.0663 183.25 74.0567 183.294 74.0567 183.339V185.049H68.5248V183.339C68.5248 183.294 68.5153 183.25 68.4968 183.209C68.4782 183.168 68.4511 183.131 68.4168 183.099C68.3826 183.068 68.3419 183.043 68.2972 183.026C68.2524 183.009 68.2045 183 68.156 183H59.305C59.2565 183 59.2086 183.009 59.1638 183.026C59.1191 183.043 59.0784 183.068 59.0442 183.099C59.0099 183.131 58.9828 183.168 58.9642 183.209C58.9457 183.25 58.9362 183.294 58.9362 183.339V185.049H53.4043V183.339C53.4043 183.294 53.3947 183.25 53.3762 183.209C53.3577 183.168 53.3305 183.131 53.2962 183.099C53.262 183.068 53.2213 183.043 53.1766 183.026C53.1319 183.009 53.0839 183 53.0355 183H44.1844C44.136 183 44.088 183.009 44.0433 183.026C43.9985 183.043 43.9579 183.068 43.9236 183.099C43.8894 183.131 43.8622 183.168 43.8437 183.209C43.8251 183.25 43.8156 183.294 43.8156 183.339V185.049H26.8511C24.5036 185.049 22.2523 185.906 20.5924 187.432C18.9325 188.958 18 191.027 18 193.185V196.864C18 199.022 18.9325 201.091 20.5924 202.617C22.2523 204.143 24.5036 205 26.8511 205H321.149C323.496 205 325.748 204.143 327.408 202.617C329.067 201.091 330 199.022 330 196.864V193.185C330 191.027 329.067 188.958 327.408 187.432C325.748 185.906 323.496 185.049 321.149 185.049Z" fill="#262D3D"/>
<path d="M87 169C80.671 169 74.4841 167.241 69.2218 163.944C63.9594 160.648 59.8579 155.962 57.4359 150.481C55.0139 144.999 54.3802 138.967 55.6149 133.147C56.8496 127.328 59.8973 121.982 64.3726 117.787C68.8479 113.591 74.5497 110.734 80.7571 109.576C86.9645 108.419 93.3986 109.013 99.2459 111.284C105.093 113.554 110.091 117.399 113.607 122.333C117.123 127.266 119 133.067 119 139C118.99 146.954 115.616 154.579 109.617 160.203C103.618 165.827 95.484 168.991 87 169ZM87 109.789C80.8376 109.789 74.8135 111.503 69.6896 114.712C64.5657 117.922 60.5721 122.484 58.2139 127.822C55.8556 133.159 55.2386 139.032 56.4408 144.699C57.643 150.365 60.6105 155.57 64.9681 159.655C69.3256 163.74 74.8774 166.522 80.9214 167.649C86.9654 168.776 93.2303 168.198 98.9236 165.987C104.617 163.776 109.483 160.032 112.907 155.229C116.331 150.425 118.158 144.777 118.158 139C118.149 131.256 114.863 123.831 109.022 118.355C103.18 112.879 95.2607 109.798 87 109.789V109.789Z" fill="#262D3D"/>
<path d="M373 43H265V44H373V43Z" fill="white"/>
<path d="M207 284H99V285H207V284Z" fill="white"/>
<path d="M228 244H216V255H228V244Z" fill="#EAC91D"/>
<path d="M235 249H221V236H235V249ZM221.609 248.435H234.391V236.565H221.609V248.435Z" fill="white"/>
<path d="M365 39H353V50H365V39Z" fill="#EAC91D"/>
<path d="M372 44H358V31H372V44ZM358.609 43.4348H371.391V31.5652H358.609V43.4348Z" fill="white"/>
<path d="M484 244H472V255H484V244Z" fill="#EAC91D"/>
<path d="M491 249H477V236H491V249ZM477.609 248.435H490.391V236.565H477.609V248.435Z" fill="white"/>
<path d="M464 120.923H462.997V95.6357C462.997 93.7137 462.586 91.8105 461.787 90.0348C460.988 88.2591 459.817 86.6457 458.341 85.2867C456.864 83.9276 455.111 82.8496 453.182 82.1141C451.254 81.3786 449.186 81 447.098 81H388.899C386.811 81 384.744 81.3785 382.815 82.1141C380.886 82.8496 379.133 83.9276 377.657 85.2867C376.18 86.6457 375.009 88.2591 374.21 90.0348C373.411 91.8105 373 93.7137 373 95.6357V234.364C373 236.286 373.411 238.189 374.21 239.965C375.009 241.741 376.18 243.354 377.657 244.713C379.133 246.072 380.886 247.15 382.815 247.886C384.744 248.621 386.811 249 388.899 249H447.098C449.186 249 451.254 248.621 453.182 247.886C455.111 247.15 456.864 246.072 458.341 244.713C459.817 243.354 460.988 241.741 461.787 239.965C462.586 238.189 462.997 236.286 462.997 234.364V138.923H464V120.923Z" fill="#262D3D"/>
<path d="M459 96.9018V235.094C459.001 237.986 457.753 240.76 455.533 242.805C453.313 244.85 450.301 245.999 447.161 246H388.839C385.699 245.999 382.687 244.85 380.467 242.805C378.246 240.76 376.999 237.986 377 235.094V96.9018C377 94.0105 378.248 91.2378 380.468 89.1934C382.688 87.149 385.699 86.0003 388.839 86H395.915C395.567 86.7865 395.434 87.6398 395.528 88.4847C395.622 89.3296 395.941 90.1403 396.456 90.8451C396.97 91.55 397.665 92.1276 398.479 92.5269C399.293 92.9262 400.202 93.135 401.124 93.1349H434.376C435.298 93.135 436.206 92.9262 437.02 92.5269C437.835 92.1276 438.529 91.55 439.044 90.8451C439.559 90.1403 439.877 89.3296 439.971 88.4847C440.066 87.6398 439.933 86.7865 439.585 86H447.161C450.301 86.0003 453.312 87.149 455.532 89.1934C457.752 91.2378 459 94.0105 459 96.9018V96.9018Z" fill="#EAC91D"/>
<path d="M427 177H409V182H427V177Z" fill="#262D3D"/>
<path d="M448 140H388V142H448V140Z" fill="#262D3D"/>
<path d="M448 146H388V148H448V146Z" fill="#262D3D"/>
<path d="M448 153H388V155H448V153Z" fill="#262D3D"/>
<path d="M448 159H388V161H448V159Z" fill="#262D3D"/>
<path d="M448 166H388V168H448V166Z" fill="#262D3D"/>
<path d="M420 113H410V122H420V113Z" fill="#F2F2F2"/>
<path d="M414 115V127H426V115H414ZM425.479 126.479H414.521V115.521H425.479V126.479Z" fill="#262D3D"/>
<path opacity="0.1" d="M459 220.131V235.007C459.001 237.922 457.753 240.718 455.533 242.779C453.313 244.841 450.301 245.999 447.161 246H388.839C385.699 245.999 382.687 244.841 380.467 242.779C378.246 240.718 376.999 237.922 377 235.007V160L426.135 196.03L426.976 196.647L436.116 203.347L436.97 203.976L459 220.131Z" fill="black"/>
<path d="M413.5 242C423.717 242 432 234.389 432 225C432 215.611 423.717 208 413.5 208C403.283 208 395 215.611 395 225C395 234.389 403.283 242 413.5 242Z" fill="#F2F2F2"/>
<path d="M153 285C145.682 285 138.529 283.006 132.444 279.27C126.359 275.534 121.617 270.224 118.816 264.011C116.016 257.799 115.283 250.962 116.711 244.367C118.139 237.772 121.663 231.713 126.837 226.958C132.012 222.203 138.604 218.965 145.782 217.653C152.959 216.341 160.398 217.015 167.159 219.588C173.92 222.161 179.699 226.519 183.764 232.111C187.83 237.702 190 244.275 190 251C189.989 260.014 186.087 268.656 179.151 275.03C172.214 281.404 162.81 284.99 153 285ZM153 217.782C145.85 217.782 138.861 219.73 132.916 223.38C126.972 227.03 122.338 232.218 119.602 238.288C116.866 244.358 116.15 251.037 117.545 257.481C118.94 263.924 122.383 269.843 127.439 274.489C132.494 279.135 138.935 282.298 145.948 283.58C152.96 284.862 160.228 284.204 166.834 281.69C173.439 279.176 179.085 274.918 183.057 269.455C187.029 263.992 189.149 257.57 189.149 251C189.139 242.193 185.327 233.75 178.55 227.522C171.773 221.295 162.584 217.792 153 217.782V217.782Z" fill="white"/>
<path d="M418.5 238C413.852 238 409.309 236.739 405.444 234.377C401.58 232.014 398.568 228.656 396.789 224.728C395.01 220.799 394.545 216.476 395.452 212.306C396.358 208.135 398.596 204.304 401.883 201.297C405.17 198.29 409.357 196.243 413.915 195.413C418.474 194.584 423.199 195.009 427.493 196.637C431.787 198.264 435.457 201.02 438.04 204.555C440.622 208.091 442 212.248 442 216.5C441.993 222.2 439.515 227.665 435.109 231.696C430.704 235.726 424.73 237.994 418.5 238V238ZM418.5 195.782C414.021 195.782 409.643 196.997 405.919 199.273C402.195 201.55 399.292 204.786 397.578 208.571C395.864 212.357 395.416 216.523 396.29 220.542C397.163 224.561 399.32 228.252 402.487 231.15C405.654 234.047 409.689 236.021 414.082 236.82C418.475 237.62 423.028 237.209 427.166 235.641C431.304 234.073 434.841 231.418 437.329 228.01C439.817 224.603 441.145 220.598 441.145 216.5C441.139 211.007 438.751 205.741 434.505 201.857C430.26 197.973 424.504 195.788 418.5 195.782Z" fill="#262D3D"/>
<rect x="2" y="2" width="512" height="304" rx="8" stroke="white" stroke-width="4"/>
</svg>
