<svg width="516" height="308" viewBox="0 0 516 308" fill="none" xmlns="http://www.w3.org/2000/svg">
<rect x="2" y="2" width="512" height="304" rx="8" stroke="white" stroke-width="4"/>
<g clip-path="url(#clip0)">
<path d="M158.593 177.163H75.8209V236.616H158.593V177.163Z" fill="#3F3D56"/>
<path d="M192.414 257.288H42V156.491H192.414V257.288ZM42.89 256.605H191.524V157.175H42.89V256.605Z" fill="white"/>
<path d="M398.641 118.295C386.11 118.295 373.86 115.442 363.441 110.097C353.022 104.751 344.901 97.1535 340.105 88.2643C335.31 79.3751 334.055 69.5937 336.5 60.157C338.945 50.7203 344.979 42.0521 353.84 35.2486C362.701 28.4451 373.99 23.8119 386.281 21.9348C398.571 20.0577 411.31 21.0211 422.888 24.7031C434.465 28.3851 444.36 34.6204 451.322 42.6205C458.284 50.6206 462 60.0261 462 69.6477C461.981 82.5454 455.3 94.9107 443.422 104.031C431.544 113.151 415.439 118.281 398.641 118.295V118.295ZM398.641 21.7207C386.296 21.7207 374.227 24.5316 363.963 29.7979C353.698 35.0642 345.697 42.5493 340.973 51.3068C336.248 60.0643 335.012 69.7009 337.421 78.9978C339.829 88.2947 345.774 96.8344 354.504 103.537C363.233 110.24 374.355 114.804 386.464 116.654C398.572 118.503 411.123 117.554 422.528 113.926C433.934 110.299 443.683 104.156 450.542 96.2745C457.401 88.3929 461.061 79.1268 461.061 69.6477C461.043 56.9411 454.46 44.759 442.758 35.774C431.056 26.7891 415.19 21.7351 398.641 21.7207V21.7207Z" fill="white"/>
<path d="M396.764 93.0706C413.612 93.0706 427.27 82.5838 427.27 69.6477C427.27 56.7115 413.612 46.2247 396.764 46.2247C379.916 46.2247 366.258 56.7115 366.258 69.6477C366.258 82.5838 379.916 93.0706 396.764 93.0706Z" fill="#3F3D56"/>
<path d="M447.608 140.672L429.486 148.705L439.949 162.619L458.07 154.586L447.608 140.672Z" fill="#EAC91D"/>
<path d="M171.05 62.6953L152.929 70.7284L163.391 84.6421L181.513 76.609L171.05 62.6953Z" fill="white"/>
<path d="M422.362 228.342L404.24 236.375L414.703 250.288L432.824 242.255L422.362 228.342Z" fill="#EAC91D"/>
<path d="M124.772 201.081H109.642V212.698H124.772V201.081Z" fill="#EAC91D"/>
<path d="M396.764 75.4132C400.911 75.4132 404.273 72.8319 404.273 69.6476C404.273 66.4633 400.911 63.882 396.764 63.882C392.617 63.882 389.255 66.4633 389.255 69.6476C389.255 72.8319 392.617 75.4132 396.764 75.4132Z" fill="#EAC91D"/>
<path d="M371.091 147.932L332.219 165.163L354.662 195.01L393.534 177.778L371.091 147.932Z" fill="#EAC91D"/>
<path d="M236.158 167.281C235.46 166.592 234.967 165.794 234.714 164.943C234.46 164.092 234.454 163.209 234.693 162.355C234.933 161.502 235.413 160.699 236.101 160.004C236.788 159.308 237.665 158.737 238.671 158.33L237.047 144.742L247.561 141.971L249.504 161.184C250.282 162.527 250.391 164.043 249.811 165.443C249.231 166.844 248.002 168.033 246.357 168.784C244.712 169.536 242.766 169.798 240.886 169.521C239.006 169.244 237.324 168.447 236.158 167.281V167.281Z" fill="#FFB8B8"/>
<path d="M247.445 89.2927C247.445 89.2927 254.66 77.6667 261.071 81.7563C267.482 85.8459 252.282 120.222 252.282 120.222L249.97 153.593L237.785 152.657L234.34 120.145L247.445 89.2927Z" fill="white"/>
<path d="M150.667 261.294L159.711 266.915L192.256 242.804L178.907 234.507L150.667 261.294Z" fill="#FFB8B8"/>
<path d="M150.75 257.593L168.563 268.664L168.563 268.664C171.574 270.535 173.493 273.248 173.898 276.206C174.303 279.163 173.162 282.124 170.725 284.435L170.427 284.718L141.262 266.592L150.75 257.593Z" fill="#2F2E41"/>
<path d="M276.369 276.899L288.006 276.899L293.542 242.436L276.367 242.436L276.369 276.899Z" fill="#FFB8B8"/>
<path d="M273.401 273.982L296.318 273.981H296.319C300.192 273.981 303.907 275.163 306.645 277.266C309.384 279.369 310.923 282.221 310.923 285.195V285.559L273.401 285.56L273.401 273.982Z" fill="#2F2E41"/>
<path d="M296.788 115.332C296.788 115.332 318.619 135.738 313.874 156.145C309.128 176.551 305.331 191.856 305.331 191.856L297.737 237.77C297.737 237.77 300.585 250.274 296.788 253.496C296.788 253.496 302.483 261.091 292.042 264.006C281.601 266.922 275.968 262.999 275.968 262.999C275.968 262.999 268.313 254.532 273.059 252.346L275.058 162.24L199.022 238.499C199.022 238.499 197.625 247.775 187.882 247.874L176.242 254.532L162.953 248.702L169.597 242.143C169.597 242.143 165.801 234.855 174.343 233.397L223.701 183.839L236.04 158.331C236.04 158.331 242.685 138.653 260.719 130.637V122.106L296.788 115.332Z" fill="#2F2E41"/>
<path d="M259.295 79.9853C262.169 77.3774 266.192 75.6723 270.598 75.1947C275.003 74.7171 279.484 75.5004 283.186 77.3953L283.974 77.7989C292.399 85.1248 298.062 94.0766 300.352 103.69L303.907 118.612L259.295 126.031L248.837 98.337C247.509 94.8219 247.829 91.0607 249.74 87.7077C251.651 84.3547 255.032 81.6221 259.295 79.9853V79.9853Z" fill="white"/>
<path d="M332.59 170.453C331.353 170.143 330.22 169.628 329.27 168.945C328.32 168.262 327.577 167.427 327.093 166.5C326.609 165.573 326.396 164.575 326.468 163.578C326.541 162.58 326.897 161.607 327.512 160.727L314.643 148.633L322.307 140.836L340.168 158.11C342.026 159.002 343.393 160.385 344.011 161.999C344.628 163.613 344.453 165.345 343.519 166.866C342.585 168.388 340.957 169.593 338.942 170.254C336.928 170.916 334.667 170.986 332.59 170.453V170.453Z" fill="#FFB8B8"/>
<path d="M278.279 90.9172C278.279 90.9172 275.432 76.3412 284.923 77.07C294.415 77.7988 308.653 117.883 308.653 117.883L334.281 150.678L321.942 155.78L291.568 126.628L278.279 90.9172Z" fill="white"/>
<path d="M295.661 69.6079H250.461C249.531 69.6071 248.64 69.3231 247.983 68.8183C247.325 68.3135 246.955 67.6291 246.954 66.9152V51.9563C246.954 46.64 249.705 41.5415 254.601 37.7823C259.497 34.0231 266.137 31.9113 273.061 31.9113C279.985 31.9113 286.625 34.0231 291.521 37.7823C296.417 41.5415 299.168 46.64 299.168 51.9563V66.9153C299.167 67.6291 298.797 68.3135 298.139 68.8183C297.482 69.3231 296.591 69.6071 295.661 69.6079V69.6079Z" fill="#2F2E41"/>
<path d="M295.22 61.6125C300.291 54.4906 296.882 45.5612 287.607 41.668C278.331 37.7748 266.701 40.3922 261.631 47.5141C256.56 54.636 259.969 63.5655 269.245 67.4586C278.52 71.3518 290.15 68.7344 295.22 61.6125Z" fill="#FFB8B8"/>
<path d="M305.344 53.4521H281.256L281.009 50.4054L279.774 53.4521H276.065L275.575 47.4136L273.128 53.4521H265.951V53.1529C265.951 44.4095 274.025 37.2964 283.949 37.2964H287.345C297.27 37.2964 305.344 44.4095 305.344 53.1529L305.344 53.4521Z" fill="#2F2E41"/>
<path d="M282.253 72.4002C281.958 72.4001 281.664 72.3827 281.374 72.3482L252.703 68.9575V46.0285C252.703 44.8687 253 43.7202 253.578 42.6487C254.156 41.5772 255.003 40.6036 256.071 39.7835C257.14 38.9634 258.408 38.3129 259.803 37.869C261.199 37.4252 262.694 37.1968 264.205 37.1968H284.264L283.482 37.8074C272.611 46.3059 280.801 60.0862 286.651 67.544C287.08 68.0801 287.274 68.7078 287.204 69.3348C287.134 69.9619 286.804 70.5551 286.262 71.0272C285.764 71.4664 285.148 71.8168 284.455 72.0539C283.763 72.2911 283.011 72.4093 282.253 72.4002Z" fill="#2F2E41"/>
</g>
<defs>
<clipPath id="clip0">
<rect width="420" height="266" fill="white" transform="translate(42 21)"/>
</clipPath>
</defs>
</svg>
