<svg width="528" height="308" viewBox="0 0 528 308" fill="none" xmlns="http://www.w3.org/2000/svg">
<rect x="2" y="2" width="524" height="304" rx="8" stroke="white" stroke-width="4"/>
<path d="M478.632 20H105.362C103.94 20.0012 102.577 20.5094 101.572 21.413C100.567 22.3167 100.001 23.5421 100 24.82V252.18C100.001 253.458 100.567 254.683 101.572 255.587C102.577 256.491 103.94 256.999 105.362 257H478.632C479.407 257 480.173 256.849 480.877 256.557C481.581 256.265 482.206 255.839 482.709 255.309C482.751 255.267 482.79 255.223 482.826 255.176C483.146 254.824 483.405 254.431 483.594 254.01C483.864 253.43 484.002 252.808 484 252.18V24.8201C483.998 23.5412 483.432 22.3152 482.425 21.4114C481.419 20.5076 480.054 19.9999 478.632 20V20ZM482.469 252.18C482.469 252.852 482.249 253.51 481.835 254.07C481.468 254.564 480.969 254.966 480.384 255.242C479.842 255.494 479.241 255.625 478.632 255.624H105.362C104.346 255.622 103.373 255.259 102.654 254.614C101.936 253.968 101.532 253.093 101.531 252.18V24.8201C101.532 23.9071 101.936 23.0318 102.654 22.3862C103.373 21.7407 104.346 21.3775 105.362 21.3764H478.632C479.648 21.3763 480.623 21.7389 481.343 22.3845C482.062 23.0302 482.467 23.9062 482.469 24.8201V252.18Z" fill="white"/>
<path d="M483 39H101V41H483V39Z" fill="white"/>
<path d="M113.5 35C115.985 35 118 32.9853 118 30.5C118 28.0147 115.985 26 113.5 26C111.015 26 109 28.0147 109 30.5C109 32.9853 111.015 35 113.5 35Z" fill="#EAC91D"/>
<path d="M127 35C129.761 35 132 32.9853 132 30.5C132 28.0147 129.761 26 127 26C124.239 26 122 28.0147 122 30.5C122 32.9853 124.239 35 127 35Z" fill="#EAC91D"/>
<path d="M139.5 35C141.985 35 144 32.9853 144 30.5C144 28.0147 141.985 26 139.5 26C137.015 26 135 28.0147 135 30.5C135 32.9853 137.015 35 139.5 35Z" fill="#EAC91D"/>
<path d="M388.038 71H196.962C194.85 71 192.825 70.2098 191.332 68.8033C189.839 67.3968 189 65.4891 189 63.5C189 61.5109 189.839 59.6032 191.332 58.1967C192.825 56.7902 194.85 56 196.962 56H388.038C390.15 56 392.175 56.7902 393.668 58.1967C395.161 59.6032 396 61.5109 396 63.5C396 65.4891 395.161 67.3968 393.668 68.8033C392.175 70.2098 390.15 71 388.038 71ZM196.962 57.1538C195.175 57.1538 193.461 57.8225 192.198 59.0126C190.935 60.2027 190.225 61.8169 190.225 63.5C190.225 65.1831 190.935 66.7973 192.198 67.9874C193.461 69.1776 195.175 69.8462 196.962 69.8462H388.038C389.825 69.8462 391.539 69.1776 392.802 67.9874C394.065 66.7973 394.775 65.1831 394.775 63.5C394.775 61.8169 394.065 60.2027 392.802 59.0126C391.539 57.8225 389.825 57.1538 388.038 57.1538H196.962Z" fill="white"/>
<path d="M196.273 115H179.727C178.474 115 177.271 114.579 176.385 113.828C175.498 113.078 175 112.061 175 111C175 109.939 175.498 108.922 176.385 108.172C177.271 107.421 178.474 107 179.727 107H196.273C197.526 107 198.729 107.421 199.615 108.172C200.502 108.922 201 109.939 201 111C201 112.061 200.502 113.078 199.615 113.828C198.729 114.579 197.526 115 196.273 115Z" fill="white"/>
<path d="M217.117 130H179.883C178.588 130 177.346 129.526 176.43 128.682C175.514 127.838 175 126.693 175 125.5C175 124.307 175.514 123.162 176.43 122.318C177.346 121.474 178.588 121 179.883 121H217.117C218.412 121 219.654 121.474 220.57 122.318C221.486 123.162 222 124.307 222 125.5C222 126.693 221.486 127.838 220.57 128.682C219.654 129.526 218.412 130 217.117 130Z" fill="white"/>
<path d="M201.091 180H183.909C182.607 180 181.358 179.579 180.438 178.828C179.517 178.078 179 177.061 179 176C179 174.939 179.517 173.922 180.438 173.172C181.358 172.421 182.607 172 183.909 172H201.091C202.393 172 203.642 172.421 204.562 173.172C205.483 173.922 206 174.939 206 176C206 177.061 205.483 178.078 204.562 178.828C203.642 179.579 202.393 180 201.091 180Z" fill="white"/>
<path d="M221.117 195H183.883C182.588 195 181.346 194.579 180.43 193.828C179.514 193.078 179 192.061 179 191C179 189.939 179.514 188.922 180.43 188.172C181.346 187.421 182.588 187 183.883 187H221.117C222.412 187 223.654 187.421 224.57 188.172C225.486 188.922 226 189.939 226 191C226 192.061 225.486 193.078 224.57 193.828C223.654 194.579 222.412 195 221.117 195Z" fill="white"/>
<path d="M314.091 179H296.909C295.607 179 294.358 178.579 293.438 177.828C292.517 177.078 292 176.061 292 175C292 173.939 292.517 172.922 293.438 172.172C294.358 171.421 295.607 171 296.909 171H314.091C315.393 171 316.641 171.421 317.562 172.172C318.483 172.922 319 173.939 319 175C319 176.061 318.483 177.078 317.562 177.828C316.641 178.579 315.393 179 314.091 179Z" fill="white"/>
<path d="M334.117 193H296.883C295.588 193 294.346 192.579 293.43 191.828C292.514 191.078 292 190.061 292 189C292 187.939 292.514 186.922 293.43 186.172C294.346 185.421 295.588 185 296.883 185H334.117C335.412 185 336.654 185.421 337.57 186.172C338.485 186.922 339 187.939 339 189C339 190.061 338.485 191.078 337.57 191.828C336.654 192.579 335.412 193 334.117 193Z" fill="white"/>
<path d="M311.909 118H294.091C292.741 118 291.446 117.526 290.491 116.682C289.536 115.838 289 114.693 289 113.5C289 112.307 289.536 111.162 290.491 110.318C291.446 109.474 292.741 109 294.091 109H311.909C313.259 109 314.554 109.474 315.509 110.318C316.464 111.162 317 112.307 317 113.5C317 114.693 316.464 115.838 315.509 116.682C314.554 117.526 313.259 118 311.909 118Z" fill="white"/>
<path d="M332.013 133H293.987C292.664 133 291.396 132.526 290.461 131.682C289.525 130.838 289 129.693 289 128.5C289 127.307 289.525 126.162 290.461 125.318C291.396 124.474 292.664 124 293.987 124H332.013C333.336 124 334.604 124.474 335.539 125.318C336.475 126.162 337 127.307 337 128.5C337 129.693 336.475 130.838 335.539 131.682C334.604 132.526 333.336 133 332.013 133Z" fill="white"/>
<path d="M427.273 114H410.727C409.474 114 408.271 113.579 407.385 112.828C406.498 112.078 406 111.061 406 110C406 108.939 406.498 107.922 407.385 107.172C408.271 106.421 409.474 106 410.727 106H427.273C428.526 106 429.729 106.421 430.615 107.172C431.502 107.922 432 108.939 432 110C432 111.061 431.502 112.078 430.615 112.828C429.729 113.579 428.526 114 427.273 114Z" fill="white"/>
<path d="M448.117 129H410.883C409.588 129 408.346 128.579 407.43 127.828C406.514 127.078 406 126.061 406 125C406 123.939 406.514 122.922 407.43 122.172C408.346 121.421 409.588 121 410.883 121H448.117C449.412 121 450.654 121.421 451.57 122.172C452.485 122.922 453 123.939 453 125C453 126.061 452.485 127.078 451.57 127.828C450.654 128.579 449.412 129 448.117 129Z" fill="white"/>
<path d="M150 135C159.941 135 168 127.613 168 118.5C168 109.387 159.941 102 150 102C140.059 102 132 109.387 132 118.5C132 127.613 140.059 135 150 135Z" fill="#EAC91D"/>
<path d="M159.147 126H141.853C141.362 126 140.891 125.824 140.543 125.511C140.196 125.199 140.001 124.775 140 124.333V112.667C140.001 112.225 140.196 111.801 140.543 111.489C140.891 111.176 141.362 111 141.853 111H146.721C147.038 110.999 147.35 111.071 147.626 111.21C147.903 111.349 148.135 111.55 148.3 111.793L149.657 113.778H159.147C159.638 113.778 160.109 113.954 160.457 114.266C160.804 114.579 160.999 115.003 161 115.444V124.333C160.999 124.775 160.804 125.199 160.457 125.511C160.109 125.824 159.638 126 159.147 126V126ZM141.853 112.111C141.689 112.111 141.532 112.17 141.416 112.274C141.301 112.378 141.236 112.519 141.235 112.667V124.333C141.236 124.481 141.301 124.622 141.416 124.726C141.532 124.83 141.689 124.889 141.853 124.889H159.147C159.311 124.889 159.468 124.83 159.584 124.726C159.699 124.622 159.764 124.481 159.765 124.333V115.444C159.764 115.297 159.699 115.156 159.584 115.052C159.468 114.948 159.311 114.889 159.147 114.889H148.967L147.248 112.375C147.193 112.294 147.115 112.227 147.023 112.181C146.931 112.135 146.827 112.111 146.721 112.111H141.853Z" fill="white"/>
<path d="M263.5 137C273.717 137 282 129.613 282 120.5C282 111.387 273.717 104 263.5 104C253.283 104 245 111.387 245 120.5C245 129.613 253.283 137 263.5 137Z" fill="#EAC91D"/>
<path d="M271.125 132H254.875C254.378 132 253.901 131.825 253.55 131.514C253.198 131.203 253.001 130.782 253 130.342V112.658C253.001 112.218 253.198 111.797 253.55 111.486C253.901 111.175 254.378 111 254.875 111H266.65C267.077 111 267.491 111.129 267.824 111.366L272.299 114.545C272.519 114.7 272.695 114.897 272.817 115.121C272.938 115.344 273.001 115.59 273 115.838V130.342C272.999 130.782 272.802 131.203 272.45 131.514C272.099 131.825 271.622 132 271.125 132V132ZM254.875 112.105C254.709 112.105 254.55 112.164 254.433 112.267C254.316 112.371 254.25 112.511 254.25 112.658V130.342C254.25 130.489 254.316 130.629 254.433 130.733C254.55 130.836 254.709 130.895 254.875 130.895H271.125C271.291 130.895 271.45 130.836 271.567 130.733C271.684 130.629 271.75 130.489 271.75 130.342V115.838C271.75 115.755 271.729 115.673 271.689 115.599C271.649 115.524 271.59 115.459 271.517 115.407L267.041 112.227C266.93 112.148 266.792 112.105 266.65 112.105H254.875Z" fill="white"/>
<path d="M268.333 119H257.667C257.49 119 257.32 118.895 257.195 118.707C257.07 118.52 257 118.265 257 118C257 117.735 257.07 117.48 257.195 117.293C257.32 117.105 257.49 117 257.667 117H268.333C268.51 117 268.68 117.105 268.805 117.293C268.93 117.48 269 117.735 269 118C269 118.265 268.93 118.52 268.805 118.707C268.68 118.895 268.51 119 268.333 119Z" fill="white"/>
<path d="M268.333 122H257.667C257.49 122 257.32 121.895 257.195 121.707C257.07 121.52 257 121.265 257 121C257 120.735 257.07 120.48 257.195 120.293C257.32 120.105 257.49 120 257.667 120H268.333C268.51 120 268.68 120.105 268.805 120.293C268.93 120.48 269 120.735 269 121C269 121.265 268.93 121.52 268.805 121.707C268.68 121.895 268.51 122 268.333 122Z" fill="white"/>
<path d="M268.333 125H257.667C257.49 125 257.32 124.947 257.195 124.854C257.07 124.76 257 124.633 257 124.5C257 124.367 257.07 124.24 257.195 124.146C257.32 124.053 257.49 124 257.667 124H268.333C268.51 124 268.68 124.053 268.805 124.146C268.93 124.24 269 124.367 269 124.5C269 124.633 268.93 124.76 268.805 124.854C268.68 124.947 268.51 125 268.333 125Z" fill="white"/>
<path d="M377 134C386.941 134 395 126.613 395 117.5C395 108.387 386.941 101 377 101C367.059 101 359 108.387 359 117.5C359 126.613 367.059 134 377 134Z" fill="#EAC91D"/>
<path d="M385.971 124H367.029C366.491 123.999 365.976 123.813 365.595 123.48C365.215 123.148 365.001 122.697 365 122.227V112.773C365.001 112.303 365.215 111.852 365.595 111.52C365.976 111.187 366.491 111.001 367.029 111H385.971C386.509 111.001 387.024 111.187 387.405 111.52C387.785 111.852 387.999 112.303 388 112.773V122.227C387.999 122.697 387.785 123.148 387.405 123.48C387.024 123.813 386.509 123.999 385.971 124V124ZM367.029 112.182C366.85 112.182 366.678 112.244 366.551 112.355C366.424 112.466 366.353 112.616 366.353 112.773V122.227C366.353 122.384 366.424 122.534 366.551 122.645C366.678 122.756 366.85 122.818 367.029 122.818H385.971C386.15 122.818 386.322 122.756 386.449 122.645C386.576 122.534 386.647 122.384 386.647 122.227V112.773C386.647 112.616 386.576 112.466 386.449 112.355C386.322 112.244 386.15 112.182 385.971 112.182H367.029Z" fill="white"/>
<path d="M376.5 120C376.12 120.001 375.747 119.893 375.424 119.689L365.317 113.27C365.165 113.173 365.057 113.019 365.017 112.841C364.977 112.664 365.008 112.478 365.103 112.323C365.198 112.169 365.349 112.059 365.524 112.018C365.699 111.977 365.882 112.008 366.034 112.104L376.142 118.523C376.25 118.591 376.374 118.626 376.5 118.626C376.627 118.626 376.751 118.591 376.859 118.523L386.966 112.104C387.118 112.008 387.301 111.977 387.476 112.018C387.651 112.059 387.802 112.169 387.897 112.323C387.992 112.478 388.023 112.664 387.983 112.841C387.943 113.019 387.835 113.173 387.683 113.27L377.576 119.689C377.253 119.893 376.88 120.001 376.5 120V120Z" fill="white"/>
<path d="M150 201C159.941 201 168 193.165 168 183.5C168 173.835 159.941 166 150 166C140.059 166 132 173.835 132 183.5C132 193.165 140.059 201 150 201Z" fill="#EAC91D"/>
<path d="M159.147 189H141.853C141.362 189 140.891 188.841 140.543 188.56C140.196 188.279 140.001 187.898 140 187.5V179.5C140.001 179.102 140.196 178.721 140.543 178.44C140.891 178.159 141.362 178 141.853 178H159.147C159.638 178 160.109 178.159 160.457 178.44C160.804 178.721 160.999 179.102 161 179.5V187.5C160.999 187.898 160.804 188.279 160.457 188.56C160.109 188.841 159.638 189 159.147 189ZM141.853 179C141.689 179 141.532 179.053 141.416 179.147C141.301 179.24 141.235 179.367 141.235 179.5V187.5C141.235 187.633 141.301 187.76 141.416 187.853C141.532 187.947 141.689 188 141.853 188H159.147C159.311 188 159.468 187.947 159.584 187.853C159.699 187.76 159.765 187.633 159.765 187.5V179.5C159.765 179.367 159.699 179.24 159.584 179.147C159.468 179.053 159.311 179 159.147 179H141.853Z" fill="white"/>
<path d="M154.673 189H141.327C141.094 189 140.865 188.955 140.663 188.871C140.462 188.786 140.294 188.664 140.178 188.517C140.061 188.371 140 188.204 140 188.034C140 187.865 140.061 187.698 140.178 187.552L144.198 182.483C144.315 182.336 144.482 182.214 144.684 182.129C144.885 182.045 145.114 182 145.347 182C145.58 182 145.809 182.045 146.01 182.129C146.212 182.214 146.379 182.336 146.496 182.483L149.092 185.756L150.596 183.86C150.713 183.713 150.88 183.591 151.082 183.506C151.284 183.422 151.512 183.377 151.745 183.377C151.978 183.377 152.207 183.422 152.409 183.506C152.61 183.591 152.778 183.713 152.894 183.86L155.822 187.552C155.939 187.699 156 187.865 156 188.035C156 188.204 155.939 188.371 155.822 188.517C155.706 188.664 155.538 188.786 155.337 188.871C155.135 188.955 154.906 189 154.673 189H154.673ZM154.673 188.034L151.745 184.343L149.667 186.963C149.609 187.037 149.525 187.098 149.424 187.14C149.323 187.182 149.209 187.205 149.092 187.205V187.205C148.976 187.205 148.861 187.182 148.761 187.14C148.66 187.098 148.576 187.037 148.518 186.963L145.347 182.966L141.327 188.034H154.673Z" fill="white"/>
<path d="M156 182C156.552 182 157 181.552 157 181C157 180.448 156.552 180 156 180C155.448 180 155 180.448 155 181C155 181.552 155.448 182 156 182Z" fill="white"/>
<path d="M264 199C274.493 199 283 191.389 283 182C283 172.611 274.493 165 264 165C253.507 165 245 172.611 245 182C245 191.389 253.507 199 264 199Z" fill="#EAC91D"/>
<path d="M264 182C263.011 182 262.044 181.707 261.222 181.157C260.4 180.608 259.759 179.827 259.381 178.913C259.002 178 258.903 176.994 259.096 176.025C259.289 175.055 259.765 174.164 260.464 173.464C261.164 172.765 262.055 172.289 263.025 172.096C263.994 171.903 265 172.002 265.913 172.381C266.827 172.759 267.608 173.4 268.157 174.222C268.707 175.044 269 176.011 269 177C268.999 178.326 268.471 179.597 267.534 180.534C266.597 181.471 265.326 181.999 264 182V182ZM264 173.111C263.231 173.111 262.479 173.339 261.839 173.767C261.2 174.194 260.701 174.801 260.407 175.512C260.113 176.222 260.036 177.004 260.186 177.759C260.336 178.513 260.706 179.206 261.25 179.75C261.794 180.294 262.487 180.664 263.241 180.814C263.996 180.964 264.778 180.887 265.488 180.593C266.199 180.299 266.806 179.8 267.234 179.161C267.661 178.521 267.889 177.769 267.889 177C267.888 175.969 267.478 174.981 266.749 174.251C266.02 173.522 265.031 173.112 264 173.111Z" fill="white"/>
<path d="M269.717 192H259.283C258.677 191.999 258.097 191.803 257.669 191.453C257.241 191.103 257.001 190.628 257 190.133C257 188.507 257.79 186.947 259.197 185.796C260.603 184.646 262.511 184 264.5 184C266.489 184 268.397 184.646 269.803 185.796C271.21 186.947 272 188.507 272 190.133C271.999 190.628 271.759 191.103 271.331 191.453C270.903 191.803 270.323 191.999 269.717 192ZM264.5 185.067C262.857 185.068 261.283 185.602 260.121 186.552C258.96 187.502 258.306 188.79 258.304 190.133C258.305 190.345 258.408 190.549 258.591 190.699C258.775 190.849 259.023 190.933 259.283 190.933H269.717C269.977 190.933 270.225 190.849 270.409 190.699C270.592 190.549 270.695 190.345 270.696 190.133C270.694 188.79 270.04 187.502 268.879 186.552C267.717 185.602 266.143 185.068 264.5 185.067V185.067Z" fill="white"/>
<path d="M86.0013 281H94.1322L98 255L86 255.001L86.0013 281Z" fill="#FFB8B8"/>
<path d="M107.991 286.999L84.2737 287L84.2733 278.764L98.8269 278.763C101.257 278.763 103.588 279.63 105.307 281.175C107.025 282.72 107.991 284.815 107.991 286.999V286.999L107.991 286.999Z" fill="#2F2E41"/>
<path d="M58.0012 281H65.4545L69 255L58 255.001L58.0012 281Z" fill="#FFB8B8"/>
<path d="M79.6765 286.999L55.9595 287L55.9591 278.764L70.5127 278.763C72.943 278.763 75.2738 279.63 76.9923 281.175C78.7109 282.72 79.6764 284.815 79.6765 286.999V286.999L79.6765 286.999Z" fill="#2F2E41"/>
<path d="M57.9579 203.021C58.7453 202.547 59.4122 201.917 59.9114 201.176C60.4106 200.435 60.7301 199.6 60.8473 198.731C60.9645 197.862 60.8766 196.979 60.5898 196.145C60.303 195.311 59.8243 194.546 59.1873 193.904L64 130L50.137 131.258L49.7562 193.839C48.6742 194.912 48.0504 196.319 48.0029 197.793C47.9554 199.268 48.4876 200.707 49.4986 201.839C50.5095 202.971 51.9291 203.716 53.4882 203.934C55.0473 204.152 56.6376 203.827 57.9579 203.021H57.9579Z" fill="#FFB8B8"/>
<path d="M87.3565 268C86.6801 267.998 86.0279 267.774 85.522 267.369C85.0161 266.965 84.6915 266.408 84.6089 265.803L80.2275 232.781C80.1659 232.316 79.9196 231.887 79.5341 231.573C79.1487 231.259 78.6501 231.081 78.1305 231.072C77.611 231.064 77.1055 231.225 76.7074 231.526C76.3094 231.827 76.0457 232.248 75.965 232.71L70.4457 264.327C70.3458 264.915 70.0149 265.451 69.5132 265.838C69.0116 266.224 68.3726 266.436 67.7126 266.433H58.7668C58.4017 266.433 58.0402 266.368 57.7032 266.241C57.3662 266.115 57.0602 265.93 56.8031 265.696C56.5459 265.463 56.3425 265.186 56.2047 264.881C56.0669 264.576 55.9973 264.25 56.0001 263.921L60.2696 193.817C60.2712 193.22 60.5117 192.644 60.9469 192.194C61.3822 191.744 61.9829 191.451 62.6388 191.368L95.8357 187.026C96.2302 186.974 96.6323 187 97.0146 187.102C97.3969 187.203 97.7504 187.378 98.0509 187.614C98.3513 187.85 98.5917 188.141 98.7555 188.469C98.9193 188.796 99.0027 189.152 98.9999 189.511L98.4208 265.168C98.416 265.805 98.1401 266.417 97.6499 266.877C97.1597 267.337 96.4926 267.61 95.7858 267.64L87.4878 267.997C87.4438 267.999 87.4 268 87.3565 268Z" fill="#2F2E41"/>
<path d="M69.4402 196C66.2691 195.989 63.1239 195.484 60.1435 194.508C59.6382 194.341 59.1994 194.042 58.8823 193.65C58.5652 193.258 58.3841 192.79 58.3618 192.305C58.0773 186.619 56.4134 157.349 51.5693 139.494C50.6277 135.992 50.858 132.317 52.2311 128.932C53.6041 125.548 56.0586 122.605 59.285 120.475C59.5455 120.306 59.8112 120.141 60.0819 119.978C62.8836 118.298 66.1158 117.291 69.4712 117.054C72.8266 116.817 76.1935 117.358 79.2516 118.624C82.4108 119.898 85.1557 121.879 87.2252 124.378C89.2947 126.878 90.6199 129.813 91.0747 132.904L98.9742 185.743C99.0249 186.073 99.0007 186.409 98.903 186.731C98.8052 187.053 98.636 187.353 98.4056 187.614C98.1803 187.873 97.8988 188.088 97.5783 188.247C97.2578 188.405 96.905 188.503 96.5412 188.534C93.804 188.78 88.127 189.736 80.8614 193.373C77.3675 195.117 73.4343 196.021 69.4402 196V196Z" fill="#3F3D56"/>
<path d="M58.6108 151.912L45.9717 148.679C45.2883 148.504 44.7067 148.079 44.3544 147.5C44.002 146.92 43.9078 146.232 44.0924 145.587L48.5356 130.127C49.0115 128.471 50.1205 127.04 51.6487 126.109C53.1769 125.179 55.0161 124.815 56.8116 125.089C58.6072 125.362 60.2319 126.253 61.3726 127.589C62.5132 128.925 63.089 130.613 62.9888 132.326L61.9773 149.619C61.9555 149.993 61.845 150.359 61.6542 150.689C61.4633 151.018 61.1967 151.303 60.8741 151.523C60.5514 151.743 60.1807 151.892 59.7891 151.959C59.3975 152.026 58.995 152.01 58.6108 151.912V151.912Z" fill="#3F3D56"/>
<path d="M73.5 111C82.0604 111 89 104.956 89 97.5C89 90.0442 82.0604 84 73.5 84C64.9396 84 58 90.0442 58 97.5C58 104.956 64.9396 111 73.5 111Z" fill="#FFB8B8"/>
<path d="M127.642 124.529C127.569 124.831 127.521 125.138 127.499 125.447L101.87 139.307L95.6409 135.945L89 144.096L102.326 153L131.565 131.376C132.758 131.79 134.056 131.853 135.288 131.558C136.52 131.263 137.627 130.623 138.462 129.724C139.296 128.825 139.819 127.709 139.961 126.524C140.103 125.339 139.856 124.142 139.254 123.092C138.653 122.042 137.724 121.189 136.593 120.645C135.461 120.102 134.179 119.894 132.919 120.05C131.658 120.206 130.478 120.719 129.535 121.519C128.593 122.319 127.932 123.369 127.642 124.529V124.529Z" fill="#FFB8B8"/>
<path d="M99.7515 139.956L88.4857 146.6C87.8759 146.959 87.1345 147.083 86.424 146.945C85.7136 146.808 85.0922 146.42 84.6961 145.867L75.2167 132.594C74.2012 131.172 73.801 129.459 74.0932 127.785C74.3854 126.111 75.3494 124.594 76.7992 123.528C78.249 122.461 80.082 121.921 81.9447 122.009C83.8073 122.098 85.5678 122.811 86.8867 124.009L100.198 136.108C100.486 136.37 100.707 136.688 100.843 137.037C100.979 137.387 101.028 137.76 100.985 138.129C100.942 138.498 100.809 138.853 100.596 139.169C100.382 139.486 100.094 139.754 99.7515 139.956Z" fill="#3F3D56"/>
<path d="M63.1536 107.596C65.9473 110.318 71.1356 108.857 71.4996 105.139C71.5281 104.85 71.5261 104.559 71.4934 104.271C71.3055 102.624 70.2651 101.128 70.5143 99.3891C70.5707 98.9562 70.747 98.5437 71.0265 98.1906C73.2527 95.4639 78.4786 99.4103 80.5796 96.9418C81.8679 95.4282 80.3535 93.045 81.3421 91.3533C82.647 89.1205 86.5118 90.222 88.9354 88.9992C91.632 87.6387 91.4707 83.8543 89.6957 81.5524C87.5309 78.7451 83.7353 77.2472 79.987 77.0313C76.2387 76.8154 72.5162 77.7422 69.0169 78.9897C65.0409 80.407 61.0981 82.3657 58.6513 85.5636C55.6758 89.4525 55.3895 94.6808 56.8776 99.2282C57.7828 101.994 60.8723 105.374 63.1536 107.596Z" fill="#2F2E41"/>
</svg>
