<svg width="98" height="96" viewBox="0 0 98 96" fill="none" xmlns="http://www.w3.org/2000/svg">
<g filter="url(#filter0_d)">
<path d="M49 0C24.1637 0 4 19.7157 4 44C4 68.2843 24.1637 88 49 88C73.8363 88 94 68.2843 94 44C94 19.7157 73.8363 0 49 0ZM49 2.75C59.7663 2.75 69.5575 6.71733 77.0087 13.2H20.9875C28.6916 6.46465 38.6654 2.74393 49 2.75V2.75ZM22.0525 15.95H75.9475L49 68.651L22.0525 15.95ZM17.5 16.61V71.39C10.6116 63.8571 6.80629 54.1049 6.8125 44C6.8125 33.4767 10.87 23.903 17.5 16.6173V16.61ZM80.5 16.61C87.3884 24.1429 91.1937 33.8951 91.1875 44C91.1875 54.527 87.13 64.1007 80.5 71.3863V16.61V16.61ZM20.3125 18.7L47.5938 72.05H20.3125V18.7ZM77.6875 18.7V72.05H50.4062L77.6912 18.7H77.6875ZM20.9987 74.8H77.0087C69.3056 81.5345 59.3333 85.2552 49 85.25C38.668 85.2543 28.6972 81.5337 20.995 74.8H20.9987Z" fill="white"/>
</g>
<defs>
<filter id="filter0_d" x="0" y="0" width="98" height="96" filterUnits="userSpaceOnUse" color-interpolation-filters="sRGB">
<feFlood flood-opacity="0" result="BackgroundImageFix"/>
<feColorMatrix in="SourceAlpha" type="matrix" values="0 0 0 0 0 0 0 0 0 0 0 0 0 0 0 0 0 0 127 0"/>
<feOffset dy="4"/>
<feGaussianBlur stdDeviation="2"/>
<feColorMatrix type="matrix" values="0 0 0 0 0 0 0 0 0 0 0 0 0 0 0 0 0 0 0.25 0"/>
<feBlend mode="normal" in2="BackgroundImageFix" result="effect1_dropShadow"/>
<feBlend mode="normal" in="SourceGraphic" in2="effect1_dropShadow" result="shape"/>
</filter>
</defs>
</svg>
