<svg width="37" height="44" viewBox="0 0 37 44" fill="none" xmlns="http://www.w3.org/2000/svg">
<path d="M36.6118 10.7723C36.3657 10.4235 35.9733 10.1398 35.4907 9.96201L12.7791 0.313084C11.9446 -0.101254 10.6408 -0.101254 9.72767 0.29475L1.1214 3.93212C0.994896 4.00317 0.873015 4.07842 0.756148 4.15762C0.296195 4.51765 0.0360979 4.98764 0.0256419 5.47763L0.0510061 17.5209L0.000276574 17.9151L0.157539 18.1406C0.265743 18.2998 0.438209 18.4314 0.652151 18.5183C0.859989 18.618 1.10292 18.6727 1.35232 18.6759C1.60173 18.6791 1.84722 18.6308 2.0599 18.5366L10.5343 15.0331C10.7128 14.9508 10.8643 14.8413 10.9782 14.7122L11.1861 14.4097V8.51183L16.8958 10.9429L25.8647 14.7507C26.0481 14.8304 26.1932 14.9488 26.2807 15.0899C26.3838 15.2153 26.4381 15.3584 26.438 15.5042V28.433C26.4349 28.5989 26.3719 28.7613 26.2554 28.9042C26.1514 29.0362 26.0474 29.1297 25.8647 29.1865L15.1481 33.7479L11.1582 35.4438V29.5257L16.112 27.377L18.7727 26.2275L19.242 25.9067L19.2953 25.8132C19.3967 25.6734 19.4506 25.5182 19.4525 25.3603V18.3313C19.4504 18.1423 19.369 17.9582 19.2192 17.8033L19.0619 17.5777L18.6967 17.4457C18.4608 17.3706 18.2528 17.3706 18.0701 17.3706L17.6263 17.3889L1.48665 24.4748C1.00747 24.6737 0.618114 24.9685 0.365529 25.3237C0.118762 25.6672 -0.00670982 26.0495 0.000276574 26.4365V38.4614C0.000276574 38.9326 0.261534 39.4038 0.834778 39.8365C1.04277 39.9501 1.2254 40.0436 1.43339 40.1371L9.90776 43.6993C10.3795 43.9065 10.8742 44 11.422 44C11.9699 44 12.4924 43.9065 12.9338 43.6993L35.4628 34.1439C35.9574 33.9551 36.3759 33.6544 36.5839 33.3519C36.8705 33.0127 36.9999 32.6167 36.9999 32.2207V11.8852C37.0048 11.4963 36.8711 11.1131 36.6118 10.7723ZM9.33705 13.977L1.87981 17.0864V5.47763C1.87981 5.34563 1.95844 5.1953 2.11316 5.08163L2.66104 4.85613L9.33705 7.72165V13.977ZM1.8519 26.4347C1.8519 26.2642 1.90517 26.0955 2.00917 25.925C2.10774 25.7875 2.2628 25.6754 2.45305 25.6042L17.6034 18.9509V25.1697L15.1786 26.2257L9.31168 28.7704L1.85444 32.0301V26.4347H1.8519ZM1.8519 38.4596V33.5774L9.30915 30.336V36.2358L2.63314 39.0811L2.37188 38.9674C2.24252 38.9106 2.13599 38.874 2.11063 38.8538C1.9559 38.7236 1.8519 38.5916 1.8519 38.4596ZM35.1508 32.2207C35.1479 32.3866 35.0849 32.5491 34.9682 32.6919C34.8769 32.8175 34.7293 32.9171 34.5496 32.9742L11.9953 42.548C11.8258 42.6304 11.6262 42.6743 11.422 42.6743C11.2178 42.6743 11.0182 42.6304 10.8488 42.548L4.48731 39.853L16.0917 34.9157V34.8974L26.7829 30.3544C27.2576 30.1749 27.6413 29.8911 27.8787 29.544C28.1696 29.2117 28.3235 28.8263 28.3226 28.433V15.5042C28.3226 15.1082 28.1653 14.7324 27.9041 14.4116C27.644 14.0763 27.266 13.7968 26.8083 13.6012L17.8393 9.79334L9.33705 6.17431L4.4594 4.08245L10.6662 1.44426C10.8399 1.37044 11.0378 1.33151 11.2394 1.33151C11.441 1.33151 11.6389 1.37044 11.8127 1.44426L34.6029 11.15C34.7749 11.2081 34.9132 11.308 34.9935 11.4324C35.0974 11.5715 35.1514 11.7271 35.1508 11.8852V32.2207Z" fill="#EAC91D"/>
</svg>
