<svg width="63" height="63" viewBox="0 0 63 63" fill="none" xmlns="http://www.w3.org/2000/svg">
<path d="M32.6689 2.93597C32.6689 0.00746113 28.0333 -1.09627 25.9915 1.33144C7.25977 23.6066 33.8789 24.6094 33.8789 35.4375C33.8789 39.8217 29.4762 43.3691 24.0707 43.3113C18.7514 43.2559 14.5195 39.6482 14.5195 35.3206V24.7989C14.5195 22.1288 10.5161 20.8331 8.25345 22.7686C4.20461 26.2287 0 32.1559 0 39.375C0 52.402 13.0267 63 29.0391 63C45.0514 63 58.0781 52.402 58.0781 39.375C58.0781 18.4214 32.6689 15.627 32.6689 2.93597V2.93597Z" fill="#EAC91D"/>
<path d="M37.5908 7.85975C37.5908 5.25663 32.9552 4.27554 30.9133 6.43351C12.1816 26.2336 38.8008 27.125 38.8008 36.75C38.8008 40.6471 34.398 43.8003 28.9925 43.7489C23.6732 43.6997 19.4414 40.4928 19.4414 36.6461V27.2935C19.4414 24.92 15.4379 23.7683 13.1753 25.4888C9.12649 28.5644 4.92188 33.833 4.92188 40.25C4.92188 51.8295 17.9486 61.25 33.9609 61.25C49.9733 61.25 63 51.8295 63 40.25C63 21.6246 37.5908 19.1407 37.5908 7.85975V7.85975Z" fill="#051B35"/>
</svg>
