<svg width="63" height="63" viewBox="0 0 63 63" fill="none" xmlns="http://www.w3.org/2000/svg">
<path d="M54.1866 2.6803L47.8608 18H62.9998L54.1866 2.6803Z" fill="#EAC91D"/>
<path d="M50.5772 0H32.6514L44.0577 15.7866L50.5772 0Z" fill="#051B35"/>
<path d="M12.5581 0L19.0776 15.7866L30.484 0H12.5581Z" fill="#051B35"/>
<path d="M31.5679 6.00049L22.897 18H40.2389L31.5679 6.00049Z" fill="#051B35"/>
<path d="M8.9487 2.6803L0 18H15.2744L8.9487 2.6803Z" fill="#EAC91D"/>
<path d="M16.7564 22.5H0.135254L30.321 63H30.3928L16.7564 22.5Z" fill="#051B35"/>
<path d="M46.3786 22.5L32.7422 63H32.814L62.9998 22.5H46.3786Z" fill="#051B35"/>
<path d="M41.5108 22.5H21.6245L31.5677 51.75L41.5108 22.5Z" fill="#EAC91D"/>
</svg>
