<svg width="63" height="63" viewBox="0 0 63 63" fill="none" xmlns="http://www.w3.org/2000/svg">
<g clip-path="url(#clip0)">
<path d="M55.1248 22.616V7.48125C55.1271 6.75764 54.9864 6.0407 54.7109 5.37159C54.4353 4.70248 54.0304 4.09438 53.5192 3.58219C53.0081 3.07 52.4008 2.6638 51.7322 2.38693C51.0637 2.11005 50.347 1.96794 49.6234 1.96875H34.4972C33.5054 1.97079 32.5544 2.36385 31.8505 3.06264L1.61049 33.294C0.579135 34.3287 0 35.73 0 37.1909C0 38.6518 0.579135 40.0532 1.61049 41.0878L16.007 55.4843C17.0413 56.5159 18.4425 57.0952 19.9033 57.0952C21.3641 57.0952 22.7652 56.5159 23.7995 55.4843L54.0309 25.2628C54.7299 24.559 55.123 23.6079 55.1248 22.616ZM43.3123 17.7188C42.5335 17.7188 41.7723 17.4878 41.1248 17.0552C40.4772 16.6225 39.9726 16.0076 39.6745 15.2881C39.3765 14.5686 39.2985 13.7769 39.4505 13.0131C39.6024 12.2493 39.9774 11.5477 40.5281 10.997C41.0787 10.4464 41.7803 10.0713 42.5441 9.91941C43.3079 9.76748 44.0996 9.84546 44.8191 10.1435C45.5386 10.4415 46.1536 10.9462 46.5862 11.5937C47.0189 12.2412 47.2498 13.0025 47.2498 13.7813C47.2498 14.8255 46.835 15.8271 46.0965 16.5655C45.3581 17.3039 44.3566 17.7188 43.3123 17.7188Z" fill="#051B35"/>
<path d="M61.0312 7.875C60.5091 7.875 60.0083 8.08242 59.6391 8.45163C59.2699 8.82085 59.0625 9.3216 59.0625 9.84375V25.5162L26.9091 57.6708C26.7186 57.8518 26.5663 58.0691 26.4611 58.3099C26.3558 58.5508 26.2999 58.8102 26.2965 59.0729C26.2932 59.3357 26.3425 59.5965 26.4415 59.8399C26.5405 60.0833 26.6872 60.3044 26.873 60.4903C27.0588 60.6761 27.28 60.8228 27.5234 60.9218C27.7668 61.0208 28.0276 61.0701 28.2903 61.0667C28.5531 61.0634 28.8125 61.0074 29.0533 60.9022C29.2941 60.797 29.5114 60.6447 29.6924 60.4542L61.9307 28.2159C62.2737 27.8714 62.5448 27.4622 62.7283 27.012C62.9119 26.5619 63.0042 26.0798 63 25.5938V9.84375C63 9.3216 62.7926 8.82085 62.4234 8.45163C62.0542 8.08242 61.5534 7.875 61.0312 7.875Z" fill="#EAC91D"/>
</g>
<defs>
<clipPath id="clip0">
<rect width="63" height="63" fill="white"/>
</clipPath>
</defs>
</svg>
