<svg width="64" height="76" viewBox="0 0 64 76" fill="none" xmlns="http://www.w3.org/2000/svg">
<path d="M56.886 36H63.651C63.651 15.4777 50.5506 0 33.1748 0V8.00089C46.9145 8.00089 56.886 19.7742 56.886 36Z" fill="#4D4E3C"/>
<path d="M33.6644 24.1888C40.7103 24.1888 43.7157 27.7638 43.7157 36.1453H50.4165C50.4165 23.2921 44.4695 16.2179 33.6644 16.2179V24.1888ZM45.1296 45.8818C44.4858 45.1857 43.6398 44.8145 42.7702 44.8465C41.9006 44.8784 41.0755 45.3111 40.4691 46.0532L32.4515 55.8614C30.5217 55.423 26.6419 53.9842 22.6482 49.2455C18.6545 44.4908 17.445 39.8637 17.0865 37.584L25.3252 28.0428C25.9497 27.3219 26.314 26.3403 26.3409 25.3056C26.3678 24.2709 26.0552 23.2644 25.4693 22.499L13.0894 6.30601C12.5032 5.53823 11.6885 5.07252 10.8183 5.00778C9.94815 4.94304 9.09102 5.28437 8.42898 5.95927L1.15855 13.3762C0.5793 14.0678 0.233564 14.9882 0.186928 15.9628C0.136671 16.9592 -0.82155 40.5612 14.5636 58.8704C27.9854 74.8323 44.7979 76 49.4282 76C50.1049 76 50.5204 75.9761 50.631 75.9681C51.4502 75.9136 52.2235 75.5005 52.802 74.8083L59.0338 66.1559C59.6016 65.3689 59.8891 64.3496 59.8353 63.3144C59.7815 62.2793 59.3907 61.3099 58.7457 60.6121L45.1296 45.8818Z" fill="#4D4E3C"/>
</svg>
