<svg width="79" height="92" viewBox="0 0 79 92" fill="none" xmlns="http://www.w3.org/2000/svg">
<path d="M33.9382 65.3245C32.0099 65.0745 30.1132 64.5618 28.2867 63.797C28.3424 62.263 28.3757 60.664 28.3757 59V58.48V56.8095C30.1001 57.7715 31.9747 58.441 33.9382 58.7725V42.75C33.9382 40.1641 34.8173 37.6842 36.3821 35.8557C37.9468 34.0272 40.0691 33 42.282 33H55.9936C55.55 29.3982 54.3735 25.9734 52.5628 23.0129C50.7522 20.0524 48.3603 17.6426 45.5878 15.9857C42.8153 14.3289 39.7431 13.4734 36.6291 13.491C33.5151 13.5086 30.4502 14.3989 27.6916 16.087C27.2516 13.961 26.5269 11.9297 25.5444 10.068C29.1504 7.96474 33.1377 6.91007 37.1673 6.99362C41.1969 7.07717 45.1497 8.29646 48.6896 10.5479C52.2294 12.7992 55.2518 16.0162 57.4996 19.9251C59.7474 23.8341 61.1543 28.3194 61.6006 33H70.0945C72.3074 33 74.4297 34.0272 75.9944 35.8557C77.5592 37.6842 78.4382 40.1641 78.4382 42.75V75.25C78.4382 77.8358 77.5592 80.3158 75.9944 82.1443C74.4297 83.9727 72.3074 85 70.0945 85H42.282C40.0691 85 37.9468 83.9727 36.3821 82.1443C34.8173 80.3158 33.9382 77.8358 33.9382 75.25V65.3245ZM61.6006 39.5C60.9685 46.0949 58.437 52.2429 54.4214 56.9353C50.4057 61.6278 45.1444 64.5859 39.5007 65.3245V75.25C39.5007 76.1119 39.7938 76.9386 40.3154 77.5481C40.8369 78.1576 41.5444 78.5 42.282 78.5H70.0945C70.8321 78.5 71.5395 78.1576 72.0611 77.5481C72.5827 76.9386 72.8757 76.1119 72.8757 75.25V42.75C72.8757 41.888 72.5827 41.0614 72.0611 40.4519C71.5395 39.8424 70.8321 39.5 70.0945 39.5H61.6006ZM55.9936 39.5H42.282C41.5444 39.5 40.8369 39.8424 40.3154 40.4519C39.7938 41.0614 39.5007 41.888 39.5007 42.75V58.7725C43.6614 58.0697 47.5158 55.813 50.4884 52.3395C53.461 48.8659 55.3922 44.3618 55.9936 39.5Z" fill="white"/>
<path d="M21.6722 43.1464C21.0881 40.6374 20.1425 38.1219 18.5183 36.1914C21.1438 33.2859 22.8125 28.6579 22.8125 23.2499C22.8125 18.7194 22.0282 15.6059 20.6098 13.1164C19.9804 12.0457 19.2529 11.0584 18.4404 10.1719C18.129 9.82058 17.8137 9.47389 17.4948 9.13192C17.1554 8.76142 16.8439 8.42342 16.4379 7.94892C15.6035 6.97392 15.5089 6.19392 15.5089 5.78442C15.5099 5.5568 15.5418 5.33081 15.6035 5.11492C15.8578 4.47224 15.9256 3.75008 15.7964 3.05828C15.6673 2.36648 15.3484 1.74288 14.8881 1.28232C14.4279 0.821758 13.8515 0.549435 13.2467 0.506764C12.6418 0.464092 12.0416 0.653407 11.5373 1.04592L11.5262 1.05242L11.5095 1.06542L11.4594 1.10442L11.2926 1.23442C10.4582 1.92986 9.65431 2.67397 8.884 3.46392C7.49338 4.90042 5.68 7.02592 4.39506 9.56092C3.27338 11.6626 2.37315 13.9149 1.71394 16.2689C1.04644 18.6024 0.5625 21.1309 0.5625 23.2499C0.5625 28.6579 2.23125 33.2794 4.85675 36.1979C3.2325 38.1219 2.28688 40.6374 1.70281 43.1529C0.5625 48.0409 0.5625 54.0859 0.5625 58.7594V58.9999C0.5625 72.3769 2.70406 80.3199 5.12931 85.0454C6.3475 87.4114 7.61575 88.9389 8.67819 89.9009C9.2443 90.4169 9.86041 90.8532 10.5138 91.2009C10.8917 91.3621 11.2865 91.4627 11.6875 91.4999C12.1547 91.4999 12.8612 91.2009 12.8612 91.2009C13.5146 90.8532 14.1307 90.4169 14.6968 89.9009C15.7537 88.9389 17.0331 87.4114 18.2457 85.0454C20.6709 80.3264 22.8125 72.3769 22.8125 58.9999V58.7659C22.8125 54.0859 22.8125 48.0474 21.6722 43.1464ZM8.83394 40.7414C9.4625 40.0004 10.3024 39.4999 11.6875 39.4999C13.0781 39.4999 13.9125 40.0069 14.5411 40.7349C15.2419 41.5604 15.8482 42.8994 16.3044 44.8559C17.2277 48.8274 17.25 54.0404 17.25 58.9999C17.25 71.6229 15.2197 78.3049 13.4731 81.7044C12.8056 83.0044 12.177 83.8429 11.6875 84.3694C10.9881 83.5835 10.387 82.6864 9.90194 81.7044C8.15531 78.2984 6.125 71.6229 6.125 58.9999C6.125 54.0404 6.14725 48.8274 7.07063 44.8559C7.52675 42.9059 8.13306 41.5604 8.83394 40.7349V40.7414ZM11.6875 32.9999C9.54594 32.9999 6.125 30.2179 6.125 23.2499C6.125 22.1254 6.41425 20.3444 6.99275 18.3294C7.51992 16.4271 8.24673 14.6084 9.15656 12.9149C9.6405 11.9594 10.2691 11.0299 10.9477 10.1784C11.3315 10.9714 11.8377 11.7709 12.5052 12.5509C12.9113 13.0254 13.4397 13.5974 13.8902 14.0914L14.58 14.8454C15.1641 15.5084 15.6146 16.0869 15.9762 16.7304C16.6437 17.8939 17.25 19.6554 17.25 23.2499C17.25 30.2179 13.8291 32.9999 11.6875 32.9999Z" fill="white"/>
</svg>
